<svg xmlns="http://www.w3.org/2000/svg" viewBox="0 0 139.13 18.89"><title>Re:Struxure Logo</title><path d="M1.76,18.32H0v-13L1.76,5V7.74C2.61,6.07,3.89,5,5.59,5a4.71,4.71,0,0,1,2.27.6L7.4,7.21a3.86,3.86,0,0,0-2-.57c-1.36,0-2.64,1-3.66,3.35Z"/><path d="M11.46,12c.06,2.92,1.82,5,4.54,5A7,7,0,0,0,19.77,16l.34,1.62a8,8,0,0,1-4.17,1.11c-3.74,0-6.27-2.81-6.27-6.75s2.61-7,6.13-7a4.47,4.47,0,0,1,4.74,4.79,7.91,7.91,0,0,1-.28,2.07l-8.79.06Zm7.32-1.56a3.81,3.81,0,0,0,0-.57c0-2-1.08-3.35-3.12-3.35a4.2,4.2,0,0,0-4.11,3.94Z"/><path d="M25.23,10.63a1.08,1.08,0,0,1-1.06-1.11,1.06,1.06,0,0,1,2.13,0A1.08,1.08,0,0,1,25.23,10.63Zm0,6.79a1.09,1.09,0,0,1-1.06-1.11,1.06,1.06,0,1,1,2.13,0A1.09,1.09,0,0,1,25.23,17.42Z"/><path d="M35.23,15.71c1.45,0,2-.45,2-1.3,0-2.24-6.47-1.13-6.47-6.18,0-2.89,1.84-4.59,5.28-4.59a7.92,7.92,0,0,1,4,1,6.19,6.19,0,0,1,.68,3.49,8.48,8.48,0,0,0-4.25-1.3c-1.22,0-1.59.4-1.59,1.08,0,2.1,6.5,1,6.5,6.07,0,3.63-2.52,5-6,5a10.71,10.71,0,0,1-4.31-.79,6,6,0,0,1-.62-3.66A10.21,10.21,0,0,0,35.23,15.71Z"/><path d="M52.82,4.2A4.7,4.7,0,0,1,53.07,6a4.7,4.7,0,0,1-.26,1.76H49V13c0,1.36.4,2.07,1.93,2.07a4.38,4.38,0,0,0,2.58-.77,5.88,5.88,0,0,1-.88,3.6,5.22,5.22,0,0,1-3.23.94c-3.49,0-4.51-2.1-4.51-5.22v-6H42.75a10.26,10.26,0,0,1,.57-3.52h1.62V1.13A7.39,7.39,0,0,1,49,0V4.2Z"/><path d="M63.46,3.63a3,3,0,0,1,1.33.25,5,5,0,0,1,.6,2.58,4.91,4.91,0,0,1-.26,1.73,3.57,3.57,0,0,0-2-.48,3.32,3.32,0,0,0-3.06,2.47V18.1a4.64,4.64,0,0,1-2,.34A4.89,4.89,0,0,1,56,18.1V4.57a7.19,7.19,0,0,1,3.32-.65l.28,2.61h.23A3.4,3.4,0,0,1,63.46,3.63Z"/><path d="M76.56,16.62c-.62,1.28-2,2.27-4.45,2.27-2.21,0-4.71-.77-4.71-5.47V4.77a8.47,8.47,0,0,1,4.11-.85v8.79c0,1.53.48,2.38,2.13,2.38a3.32,3.32,0,0,0,2.72-1.22V4.42a4.88,4.88,0,0,1,2.07-.34,4.64,4.64,0,0,1,2,.34V18a6.75,6.75,0,0,1-3.21.65l-.48-2Z"/><path d="M83,4.59A4.71,4.71,0,0,1,85.58,4a5,5,0,0,1,1.79.26l1.53,2.33a5.69,5.69,0,0,1,.77,1.56h.23a5.18,5.18,0,0,1,.71-1.56L92,4.28A4.72,4.72,0,0,1,93.75,4a4.38,4.38,0,0,1,2.47.57L92,11l4.82,7.06a4.62,4.62,0,0,1-2.1.37,7.06,7.06,0,0,1-2.47-.34l-1.9-2.78a5.43,5.43,0,0,1-.79-1.56h-.23a5.33,5.33,0,0,1-.77,1.56l-1.84,2.78a6.92,6.92,0,0,1-2.41.34,4.26,4.26,0,0,1-2-.37l4.94-7.23Z"/><path d="M107.64,16.62c-.62,1.28-2,2.27-4.45,2.27-2.21,0-4.71-.77-4.71-5.47V4.77a8.47,8.47,0,0,1,4.11-.85v8.79c0,1.53.48,2.38,2.13,2.38a3.32,3.32,0,0,0,2.72-1.22V4.42a4.88,4.88,0,0,1,2.07-.34,4.64,4.64,0,0,1,2,.34V18a6.75,6.75,0,0,1-3.21.65l-.48-2Z"/><path d="M123,3.63a3,3,0,0,1,1.33.25,5,5,0,0,1,.6,2.58,4.91,4.91,0,0,1-.26,1.73,3.57,3.57,0,0,0-2-.48,3.32,3.32,0,0,0-3.06,2.47V18.1a4.64,4.64,0,0,1-2,.34,4.89,4.89,0,0,1-2.07-.34V4.57a7.19,7.19,0,0,1,3.32-.65l.28,2.61h.23A3.4,3.4,0,0,1,123,3.63Z"/><path d="M130.08,12.59c.17,2,1.59,2.95,4.4,2.95a11.32,11.32,0,0,0,4.42-.85,4.82,4.82,0,0,1-1,3.21,9.35,9.35,0,0,1-4.48,1c-5,0-7.6-2.87-7.6-7.46s2.84-7.8,7.29-7.8c4.14,0,6,2.55,6,6.3a8.74,8.74,0,0,1-.43,2.67Zm5.19-3c.23-1.48-.31-2.92-2.35-2.92a2.82,2.82,0,0,0-3,2.92Z"/></svg>
